<svg xmlns="http://www.w3.org/2000/svg" width="59.01" height="39.34" viewBox="0 0 59.01 39.34">
  <path id="upload_icon" data-name="upload icon" d="M58.671,27.868l-7.42,12.719a6.556,6.556,0,0,1-5.663,3.253H4.613a2.459,2.459,0,0,1-2.124-3.7l7.42-12.719a6.557,6.557,0,0,1,5.664-3.253H56.547a2.459,2.459,0,0,1,2.124,3.7Zm-43.1-6.976h33.6V15.974a4.917,4.917,0,0,0-4.917-4.917H27.866L21.309,4.5H4.917A4.917,4.917,0,0,0,0,9.417V37.9L7.077,25.771A9.868,9.868,0,0,1,15.572,20.892Z" transform="translate(0 -4.5)" fill="#576574"/>
</svg>
